<?xml version="1.0" encoding="UTF-8"?>
<svg width="80px" height="80px" viewBox="0 0 80 80" version="1.1" xmlns="http://www.w3.org/2000/svg" xmlns:xlink="http://www.w3.org/1999/xlink">
    <g stroke="none" stroke-width="1" fill="none" fill-rule="evenodd">
        <g transform="translate(-294.000000, -236.000000)" fill="#FFFFFF" fill-rule="nonzero">
            <g transform="translate(294.000000, 236.000000)">
                <path d="M39.9670232,0.00838594543 C17.9358382,0.00838594543 0.0760578997,17.8681662 0.0760578997,39.8993512 C0.0760578997,61.9307313 17.9357406,79.7905116 39.9670232,79.7905116 C61.9981106,79.7905116 79.8579884,61.9307313 79.8579884,39.8993512 C79.8579884,17.8682638 61.9981106,0.00838594543 39.9670232,0.00838594543 L39.9670232,0.00838594543 Z M39.9670232,75.8012103 C20.1389274,75.8012103 4.06506662,59.7273495 4.06506662,39.8992537 C4.06506662,20.071353 20.1389274,3.99749231 39.9670232,3.99749231 C59.7951189,3.99749231 75.8688821,20.0713531 75.8688821,39.8992537 C75.8688821,59.7273495 59.7951189,75.8012103 39.9670232,75.8012103 L39.9670232,75.8012103 Z M58.0745498,37.0722143 C51.8667483,32.8482367 40.6100907,26.5259256 34.2004832,22.6085097 C31.5726163,20.9513403 29.3627969,21.6168415 29.1507494,24.5437598 C28.9970297,32.3832734 29.1507494,47.5093581 29.1507494,55.484547 C29.2840838,58.4558449 31.9037575,58.8477523 34.1773667,57.6547659 C40.5797564,53.77578 51.5834981,47.1092575 58.0184655,43.2105689 C57.9765242,43.185014 62.9043355,40.4747275 58.0745498,37.0722143 L58.0745498,37.0722143 Z"></path>
            </g>
        </g>
    </g>
</svg>